<svg width="38" height="38" viewBox="0 0 38 38" fill="none" xmlns="http://www.w3.org/2000/svg">
<circle cx="19" cy="19" r="19" fill="#CFD4ED"/>
<path d="M13.8537 12.709H16.1662V18.9122C16.1662 19.8965 16.1948 20.5346 16.2521 20.8262C16.3511 21.295 16.5855 21.6726 16.9553 21.959C17.3303 22.2403 17.8407 22.3809 18.4865 22.3809C19.1428 22.3809 19.6375 22.2481 19.9709 21.9825C20.3042 21.7116 20.5047 21.3809 20.5724 20.9903C20.6401 20.5997 20.674 19.9512 20.674 19.045V12.709H22.9865V18.7247C22.9865 20.0997 22.924 21.071 22.799 21.6387C22.674 22.2064 22.4422 22.6856 22.1037 23.0762C21.7704 23.4669 21.3224 23.7794 20.7599 24.0137C20.1974 24.2429 19.4631 24.3575 18.5568 24.3575C17.4631 24.3575 16.6323 24.2325 16.0646 23.9825C15.5021 23.7273 15.0568 23.3991 14.7287 22.9981C14.4006 22.5919 14.1844 22.1674 14.0803 21.7247C13.9292 21.0684 13.8537 20.0997 13.8537 18.8184V12.709Z" fill="#151515"/>
</svg>
